<?xml version="1.0" encoding="utf-8"?>
<!-- Generator: Adobe Illustrator 18.1.1, SVG Export Plug-In . SVG Version: 6.00 Build 0)  -->
<svg version="1.1" xmlns="http://www.w3.org/2000/svg" xmlns:xlink="http://www.w3.org/1999/xlink" x="0px" y="0px"
	 viewBox="0 0 306 365" enable-background="new 0 0 306 365" xml:space="preserve">

<g id="Layer_1">
	<g>
		<path fill="#EAEAEA" d="M205.32797,74.98528c0,0,17.13693-23.0608,37.44736-18.82946s25.38803,9.30894,25.38803,9.30894
			s11.00146,4.23134,11.00146,28.34997c0,19.94188-5.50073,30.0425-16.92535,32.15817
			c-11.42461,2.11567-13.11714,5.07761-35.96637-0.84627C203.42387,119.20277,197.5,100.58488,197.5,95.50727
			S205.32797,74.98528,205.32797,74.98528z"/>
		<path fill="#EAEAEA" d="M99.00494,69.85942c0,0-17.13692-23.06079-37.44735-18.82946s-25.38803,9.30894-25.38803,9.30894
			s-11.00148,4.23133-11.00148,28.34997c0,19.94187,5.50074,30.0425,16.92535,32.15817s13.11715,5.07761,35.96638-0.84627
			s28.7731-24.54176,28.7731-29.61937S99.00494,69.85942,99.00494,69.85942z"/>
		<path d="M277.06839,29.8286c0-2.8193-2.28519-5.1045-5.10361-5.1045c0,0-31.39449-0.8926-41.60539,0.128
			c-10.209,1.0209-32.543,4.9775-32.543,4.9775c-2.81839,0-4.084,3.956-4.084,3.956c-1.6582,10.0821,3.4453,7.7847,3.4453,7.7847
			s13.2735-6.3804,32.9268-7.6567c19.65331-1.2764,45.56052,1.6587,45.56052,1.6587
			C277.71878,35.062,277.06839,32.6479,277.06839,29.8286L277.06839,29.8286z"/>
		<path fill="#282425" d="M15.832,29.8286c0-2.8193,2.2852-5.1045,5.1035-5.1045c0,0,31.3946-0.8926,41.60551,0.128
			c10.209,1.0209,32.543,4.9775,32.543,4.9775c2.81829,0,4.084,3.956,4.084,3.956c1.6582,10.0821-3.4453,7.7847-3.4453,7.7847
			s-13.2735-6.3804-32.9268-7.6567c-19.6533-1.2764-45.5605,1.6587-45.5605,1.6587C15.1816,35.062,15.832,32.6479,15.832,29.8286
			L15.832,29.8286z"/>
		<circle fill="#D1D3D4" cx="242.66699" cy="96.38586" r="17.94899"/>
		<circle fill="#603913" cx="242.66699" cy="96.66599" r="14.667"/>

			<ellipse transform="matrix(0.97891 0.20427 -0.20427 0.97891 41.98421 -20.86387)" fill="#2D292A" cx="122.05396" cy="192.93405" rx="12.48554" ry="6.24292"/>

			<ellipse transform="matrix(0.98701 -0.16068 0.16068 0.98701 -28.90089 31.52248)" cx="180.45224" cy="194.45474" rx="13.07772" ry="6.53945"/>
		
		<path fill="#512F15" d="M158.66701,345.33109c58.66599-2,57.41701-50.61481,57.41701-50.61481
			c-29.79391,4.53421-44.07132,3.59232-63.17682,1.22122c-0.04491,16.47659,0.6387,32.95209,2.8067,49.42871
			C156.68359,345.37399,157.666,345.3652,158.66701,345.33109z"/>
		<path fill="#603913" d="M152.9072,295.9375c-39.8891-4.9502-66.24053-5.86938-66.24053-5.86938
			s13.17903,54.86737,69.04723,55.2981C153.5459,328.88959,152.86229,312.41409,152.9072,295.9375z"/>
		<path fill="#512F15" d="M171.21089,246.9736c-20.84959,5.93359-18.39639,8.8985-18.39639,8.8985s-0.17091-0.1787-0.48541-0.4883
			c-0.36719,8.18459-0.72949,16.36909-0.99899,24.5547c8.24609-1.94052,34.22369-5.98755,65.39931,16.17307
			C216.7294,296.11157,192.05859,241.041,171.21089,246.9736z"/>
		<path fill="#603913" d="M122.76709,246.9736c-11.65089,10.38281-36.98617,43.09451-36.98617,43.09451
			s60.90067-17.88263,63.96708-9.72531c0,0,0.55669-0.16312,1.58209-0.4043c0.2695-8.18561,0.63181-16.37012,0.99899-24.5547
			C149.3564,252.4541,133.30469,237.584,122.76709,246.9736z"/>
		<path opacity="0.59" fill="#603913" d="M178.98976,136.28101c14.14626,26.88129,49.1945,40.44598,35.34198,56.61108
			c-13.85254,16.16508-35.34198,11.07747-35.34198,11.07747s22.70293,0.29436,17.04774-11.07747
			c-5.65518-11.37184-22.62282-11.12082-28.65611,0c-7.45026,13.73259-25.58878,16.76546-37.03816-2.87491
			c-11.4494-19.64037-39.80572,2.87491-9.75176,13.95238c0,0-47.77392-10.51665-12.39792-46.31465
			s40.68603-111.59717,40.68603-111.59717S164.84351,109.39973,178.98976,136.28101z"/>
		<circle fill="#D1D3D4" cx="63.28554" cy="92.12616" r="17.94899"/>
		<circle fill="#603913" cx="63.28554" cy="92.40631" r="14.667"/>
	</g>
</g>

</svg>
