<?xml version="1.0" encoding="utf-8"?>
<!-- Generator: Adobe Illustrator 18.1.1, SVG Export Plug-In . SVG Version: 6.00 Build 0)  -->
<svg version="1.1" xmlns="http://www.w3.org/2000/svg" xmlns:xlink="http://www.w3.org/1999/xlink" x="0px" y="0px"
	 viewBox="0 0 595.28027 841.88959" enable-background="new 0 0 595.28027 841.88959" xml:space="preserve">

<g id="Layer_1">
	<path fill="#F6A61C" d="M591,816c-21-41-68-255-289-243c-0.793,0.04303-1.57809,0.09857-2.36722,0.14752
		C300.6377,611.08112,300.09958,648.91211,307,686c8.49609,49.09082,26.7832,94.61908,20.39059,144.15143
		C468.49609,835.5459,601.03809,835.59857,591,816z"/>
	<path fill="#E9B221" d="M314,687c-6.90042-37.08789-6.3623-74.91888-7.36722-112.85248C87.4912,587.63568,16,813,16,813
		s164.30179,12.26068,318.39059,18.15143C340.7832,781.61908,322.49609,736.09082,314,687z"/>
	<path fill="#603913" d="M469.30411,408.54398c0,0,4.83197-9.25418,16.5-8.5s13.5,4,14,12.5s4,29-3.5,49s-12,46-31,52.00003
		C446.30411,519.54401,469.30411,408.54398,469.30411,408.54398z"/>
	<path fill="#603913" d="M143.7305,395c0,0-7.10167-7.34213-16.5-8.5s-13.5,4-14,12.5s-4,29,3.5,49s12,46,31,52
		S143.7305,395,143.7305,395z"/>
	<path fill="#754C29" d="M305.55862,540.41382c-1,0-8-36.00003-6-55.00003c4-34,9-67,8-101c0-7-4-15-5-23c-6-45,1-88-2-131.99998
		c-1.2998-20.35941-2.41022-40.9062-3.17191-61.47801c-27.6347,2.15921-94.4677,13.082-128.82809,67.81151
		c-34.58841,55.09279-28,176.0005-31.33351,193.33351c-3.3335,17.33298,9.33351,92.66699,12,104.66699
		c2.6665,12,77.13921,177.49408,139.33351,182c11.5918,0.83978,21.14838,1.5498,29.2861,1.78998
		c-0.76852-10.04095-2.00391-20.08301-4.2861-30.12396C299.55862,638.41382,303.55862,589.41382,305.55862,540.41382z"/>
	<path fill="#664326" d="M459.66599,256.99435c-28-58-54.16599-85.66699-151.41599-89.66699c0,0-4.66891-0.084-12.42191,0.522
		c0.76169,20.57179,1.8721,41.11859,3.17191,61.478c3,44-4,87,2,132c1,8,5,16,5,23c1,34-4,67-8,101c-2,19,5,54.99997,6,54.99997
		c-2,49-6,98,8,147c2.2822,10.04102,3.51758,20.08301,4.2861,30.12402c32.23148,0.94922,42.1651-5.49408,67.7139-40.62402
		c24.71478-33.9834,43-45,73.66599-144.5C480.582,457.97287,487.66599,314.99435,459.66599,256.99435z"/>
	<path fill="#020202" d="M298,139.33424c-1.35941,0.1494-2.7041,0.312-4.04099,0.4819
		c0.20068,11.48779,0.53506,22.99219,0.978,34.4883c0.79788-0.10201,1.59027-0.20851,2.396-0.30371c186.66599-22,180,212,180,212
		C484,349.33423,486,118.66724,298,139.33424z"/>
	<path fill="#262526" d="M139.58047,382.82144c8.62831-15.00311-18.6783-186.50494,157.86179-209.0386
		c-0.4429-11.49611-0.77728-23.0005-0.978-34.48831C112.88228,162.68033,139.28539,382.71994,139.58047,382.82144z"/>
	<path fill="#020202" d="M127,368"/>
</g>


</svg>
