<?xml version="1.0" encoding="utf-8"?>
<!-- Generator: Adobe Illustrator 18.1.1, SVG Export Plug-In . SVG Version: 6.00 Build 0)  -->
<svg version="1.1" xmlns="http://www.w3.org/2000/svg" xmlns:xlink="http://www.w3.org/1999/xlink" x="0px" y="0px"
	 viewBox="0 0 595.28027 841.88959" enable-background="new 0 0 595.28027 841.88959" xml:space="preserve">

<g id="Layer_3" display="none">
	<rect display="inline" fill="#196294" width="602" height="841.88959"/>
</g>
<g id="Layer_1" display="none">
	<path display="inline" fill="#F6A61C" d="M591,816c-21-41-68-255-289-243c-0.793,0.04303-1.57809,0.09857-2.36722,0.14752
		C300.6377,611.08112,300.09958,648.91211,307,686c8.49609,49.09082,26.7832,94.61908,20.39059,144.15143
		C468.49609,835.5459,601.03809,835.59857,591,816z"/>
	<path display="inline" fill="#E9B221" d="M314,687c-6.90042-37.08789-6.3623-74.91888-7.36722-112.85248
		C87.4912,587.63568,16,813,16,813s164.30179,12.26068,318.39059,18.15143C340.7832,781.61908,322.49609,736.09082,314,687z"/>
	<path display="inline" fill="#603913" d="M469.30411,408.54398c0,0,4.83197-9.25418,16.5-8.5s13.5,4,14,12.5s4,29-3.5,49
		s-12,46-31,52.00003C446.30411,519.54401,469.30411,408.54398,469.30411,408.54398z"/>
	<path display="inline" fill="#603913" d="M143.7305,395c0,0-7.10167-7.34213-16.5-8.5s-13.5,4-14,12.5s-4,29,3.5,49s12,46,31,52
		S143.7305,395,143.7305,395z"/>
	<path display="inline" fill="#754C29" d="M305.55862,540.41382c-1,0-8-36.00003-6-55.00003c4-34,9-67,8-101c0-7-4-15-5-23
		c-6-45,1-88-2-131.99998c-1.2998-20.35941-2.41022-40.9062-3.17191-61.47801c-27.6347,2.15921-94.4677,13.082-128.82809,67.81151
		c-34.58841,55.09279-28,176.0005-31.33351,193.33351c-3.3335,17.33298,9.33351,92.66699,12,104.66699
		c2.6665,12,77.13921,177.49408,139.33351,182c11.5918,0.83978,21.14838,1.5498,29.2861,1.78998
		c-0.76852-10.04095-2.00391-20.08301-4.2861-30.12396C299.55862,638.41382,303.55862,589.41382,305.55862,540.41382z"/>
	<path display="inline" fill="#664326" d="M459.66599,256.99435c-28-58-54.16599-85.66699-151.41599-89.66699
		c0,0-4.66891-0.084-12.42191,0.522c0.76169,20.57179,1.8721,41.11859,3.17191,61.478c3,44-4,87,2,132c1,8,5,16,5,23
		c1,34-4,67-8,101c-2,19,5,54.99997,6,54.99997c-2,49-6,98,8,147c2.2822,10.04102,3.51758,20.08301,4.2861,30.12402
		c32.23148,0.94922,42.1651-5.49408,67.7139-40.62402c24.71478-33.9834,43-45,73.66599-144.5
		C480.582,457.97287,487.66599,314.99435,459.66599,256.99435z"/>
	<path display="inline" fill="#020202" d="M298,139.33424c-1.35941,0.1494-2.7041,0.312-4.04099,0.4819
		c0.20068,11.48779,0.53506,22.99219,0.978,34.4883c0.79788-0.10201,1.59027-0.20851,2.396-0.30371c186.66599-22,180,212,180,212
		C484,349.33423,486,118.66724,298,139.33424z"/>
	<path display="inline" fill="#262526" d="M139.58047,382.82144c8.62831-15.00311-18.6783-186.50494,157.86179-209.0386
		c-0.4429-11.49611-0.77728-23.0005-0.978-34.48831C112.88228,162.68033,139.28539,382.71994,139.58047,382.82144z"/>
	<path display="inline" fill="#020202" d="M127,368"/>
</g>
<g id="Layer_4">
	<g>
		<path fill="#FFFFFF" d="M246.08299,359.1665c0,0-20.25-27.25-44.25-22.25s-30,11-30,11s-13,5-13,33.5c0,23.56448,6.5,35.5,20,38
			s15.5,5.99948,42.5-1c27-7,34-29,34-35S246.08299,359.1665,246.08299,359.1665z"/>
		<path fill="#FFFFFF" d="M348.75,376.5c0,0,20.25-27.25,44.25-22.25s30,11,30,11s13,5,13,33.5c0,23.56451-6.5,35.5-20,38
			s-15.5,6-42.5-1s-34-29-34-35S348.75,376.5,348.75,376.5z"/>
		<path d="M428.06839,331.82861c0-2.81931-2.28519-5.10452-5.10361-5.10452c0,0-31.3945-0.89258-41.60538,0.12802
			c-10.20901,1.02087-32.543,4.97748-32.543,4.97748c-2.81842,0-4.08401,3.95602-4.08401,3.95602
			c-1.6582,10.08209,3.44531,7.7847,3.44531,7.7847s13.2735-6.3804,32.92679-7.65671
			c19.65329-1.2764,45.56052,1.65869,45.56052,1.65869C428.71878,337.06201,428.06839,334.64789,428.06839,331.82861
			L428.06839,331.82861z"/>
		<path d="M163.832,325.82861c0-2.81931,2.2852-5.10452,5.1035-5.10452c0,0,31.39459-0.89258,41.6055,0.12802
			c10.209,1.02087,32.543,4.97748,32.543,4.97748c2.8183,0,4.084,3.95602,4.084,3.95602
			c1.65819,10.08209-3.44531,7.7847-3.44531,7.7847s-13.2735-6.3804-32.92679-7.65671
			c-19.65331-1.2764-45.5605,1.65869-45.5605,1.65869C163.18159,331.06201,163.832,328.64789,163.832,325.82861L163.832,325.82861z"
			/>
		<circle fill="#603913" cx="393.66699" cy="398.66599" r="14.667"/>
		<circle fill="#603913" cx="197.00049" cy="385.99951" r="14.667"/>

			<ellipse transform="matrix(0.99058 0.13696 -0.13696 0.99058 69.97157 -32.93724)" fill="#2D292A" cx="274.33325" cy="491.99899" rx="17.333" ry="8.66671"/>

			<ellipse transform="matrix(0.98701 -0.16068 0.16068 0.98701 -74.80139 60.33781)" cx="335.6665" cy="492.66406" rx="17.33313" ry="8.66734"/>
		<path fill="#603913" d="M275.76709,542.97357c-11.65091,10.38281-29.43359,39.30286-29.43359,39.30286
			s53.34808-14.09094,56.41449-5.93365c0,0,0.5567-0.16309,1.58209-0.4043c0.2695-8.18555,0.63181-16.37006,0.99902-24.55469
			C302.35638,548.4541,286.30469,533.58398,275.76709,542.97357z"/>
		<path fill="#512F15" d="M324.21091,542.97357c-20.84961,5.93365-18.39642,8.8985-18.39642,8.8985s-0.1709-0.17865-0.48538-0.48828
			c-0.36722,8.18463-0.72952,16.36914-0.99902,24.55469c8.24612-1.94049,46.91501-8.9248,72.00293,23.39264
			C376.33301,599.33112,345.05859,537.04102,324.21091,542.97357z"/>
		<path fill="#603913" d="M303.9072,597.9375c-39.8891-4.9502-57.5737-19.27252-57.5737-19.27252s4.51219,68.27051,60.3804,68.70123
			C304.5459,630.88959,303.8623,614.41412,303.9072,597.9375z"/>
		<path fill="#512F15" d="M309.66699,647.33112c58.66602-2,67.33301-51.33313,67.33301-51.33313
			c-29.79391,4.53424-53.9873,4.31061-73.0928,1.93951c-0.04489,16.47662,0.6387,32.95209,2.8067,49.42871
			C307.68359,647.37402,308.66599,647.36517,309.66699,647.33112z"/>
	</g>
</g>
</svg>
